<svg id="Component_3_6" data-name="Component 3 – 6" xmlns="http://www.w3.org/2000/svg" width="20.02" height="23.242" viewBox="0 0 20.02 23.242">
  <path id="surface1" d="M12.885,1A4.63,4.63,0,0,0,8.361,5.743v.949H4.784l-.043.415-1.81,16.6-.057.534h20.02l-.057-.534-1.81-16.6-.043-.415H17.409V5.743A4.63,4.63,0,0,0,12.885,1Zm0,.949A3.683,3.683,0,0,1,16.5,5.743v.949H9.265V5.743A3.683,3.683,0,0,1,12.885,1.949ZM5.6,7.641H8.361V8.722a.948.948,0,0,0-.452.815.906.906,0,1,0,1.81,0,.949.949,0,0,0-.452-.815V7.641H16.5V8.722a.948.948,0,0,0-.452.815.906.906,0,1,0,1.81,0,.949.949,0,0,0-.452-.815V7.641h2.757l1.711,15.653H3.893Z" transform="translate(-2.875 -1)" fill="#e75e25"/>
</svg>
