<svg xmlns="http://www.w3.org/2000/svg" width="24" height="32" viewBox="0 0 24 32"><path d="M14.875,1c-3,0-5.424,2.916-5.424,6.531V8.837H5.163l-.051.571L2.943,32.265,2.875,33h24l-.068-.735L24.638,9.408l-.051-.571H20.3V7.531C20.3,3.916,17.877,1,14.875,1Zm0,1.306c2.422,0,4.339,2.309,4.339,5.224V8.837H10.536V7.531C10.536,4.615,12.453,2.306,14.875,2.306ZM6.146,10.143H9.451v1.49a1.358,1.358,0,0,0-.542,1.123,1.211,1.211,0,0,0,1.085,1.306,1.211,1.211,0,0,0,1.085-1.306,1.359,1.359,0,0,0-.542-1.123v-1.49h8.678v1.49a1.358,1.358,0,0,0-.542,1.123,1.211,1.211,0,0,0,1.085,1.306,1.211,1.211,0,0,0,1.085-1.306,1.359,1.359,0,0,0-.542-1.123v-1.49H23.6l2.051,21.551H4.1Z" transform="translate(-2.875 -1)"/></svg>