<svg xmlns="http://www.w3.org/2000/svg" width="21.316" height="18.804" viewBox="0 0 21.316 18.804">
  <path id="Path_262" data-name="Path 262" d="M327.837,194.816l-3.729-3.5v-5.239h-3.563v1.889L317.5,185.1a.363.363,0,0,0-.5,0l-10.237,9.718a.38.38,0,0,0,.269.658H309.6v7.951a.374.374,0,0,0,.37.378h4.821a.359.359,0,0,0,.354-.363v-4.594a.452.452,0,0,1,.447-.457h3.419a.452.452,0,0,1,.447.457v4.594a.359.359,0,0,0,.354.363h4.821a.374.374,0,0,0,.37-.378v-7.951h2.569a.38.38,0,0,0,.267-.659Z" transform="translate(-306.642 -185)" fill="#e75e25"/>
</svg>
