<svg xmlns="http://www.w3.org/2000/svg" width="175.156" height="53.478" viewBox="0 0 175.156 53.478"><defs><style>.a{fill:#70b80d;opacity:0;}.a,.d,.e{fill-rule:evenodd;}.b,.d{fill:#312a2a;}.c{fill:#332a2a;}.e{fill:#e04517;}</style></defs><g transform="translate(-136.621 -7.849)"><path class="a" d="M817.361,214.337h0v0Zm0,0a8.08,8.08,0,0,0-3.141-6.392,8.472,8.472,0,0,1-9.861,0,8.08,8.08,0,0,0-3.141,6.392v.463h16.143ZM800,214.325h0v1.692h18.578v-1.692h0a9.306,9.306,0,0,0-4.419-7.9,7.262,7.262,0,0,1-9.74,0A9.306,9.306,0,0,0,800,214.325Zm2.106-15.242a7.17,7.17,0,1,1,2.106,5.077A7.186,7.186,0,0,1,802.106,199.083Zm1.217,0a5.982,5.982,0,0,1,1.753-4.225,5.965,5.965,0,0,1,10.178,4.212A5.982,5.982,0,0,1,813.5,203.3a5.965,5.965,0,0,1-10.178-4.212Z" transform="translate(-506.801 -154.879)"/><path class="b" d="M244.622,436.429c-.055-.021-.226-.087-.161-.07-.294-.106-.6-.234-.9-.332-.99-.377-1.11-.42,0,0,.324.141.722.274,1.065.4Zm-4.263.439.186.081-.186-.081Zm.907-1.157s-.055-.035-.03-.035l-.113-.042c-.212-.082.121.067.143.077Zm3.2,1.984c2.572.931,8.193,3.345,10.339,1.244-1.243,1.831-5.557.836-7.4.416a34.926,34.926,0,0,1-5.316-1.762c-.5-.172-1.062-.434-1.539-.643.5.23,1.01.444,1.53.652,5.127,2.037,3.817,1.632-.146.155-.615-.2-1.213-.492-1.794-.732-.075-.031-.227-.1-.225-.1.074.033.155.066.226.1.582.261,1.173.51,1.773.755,4.211,1.771,11.222,4.92,15.293,1.575-3.171,3.244-9.743.9-13.544-.621,6.393,3.008.055.637-2.3-.368-.621-.224-1.189-.548-1.774-.807-.214-.1-.4-.211-.6-.316a1.767,1.767,0,0,1-.743-.665,1.755,1.755,0,0,0,.739.667c.193.115.395.217.6.32.569.293,1.16.556,1.766.814,1.691.749,3.4,1.407,5.223,2.021a31.927,31.927,0,0,0,5.951,1.445,10.664,10.664,0,0,0,3.488-.168,7.488,7.488,0,0,0,2.386-1.01,4.941,4.941,0,0,0,1.771-1.906,3.239,3.239,0,0,0,.34-1.51,4.806,4.806,0,0,0-.141-1.091,11.689,11.689,0,0,0-.712-2.066,1.737,1.737,0,0,0-.082-.2c-1.193-2.884-4.151-7.255-4.961-9.6-.309-1.022-.543-3.419,2.629-2.724,3.4.744,3.456-3.706-.465-4.318a8.453,8.453,0,0,0-6.183,1.341c-5.366,3.681-3.412,8.236-1.435,11.389,2.55,4.07,6.09,8.037,3.148,7.785-1.243-.107-2.927-.448-3.227-.5-.924-.182-4.846-1.181-5.429-1.233,2.968,1.016,4.655,1.725,0,0-.021-.009-.043-.017-.064-.023-.045-.016-.094-.036-.139-.053.045.018.1.035.138.054.438.192.98.372,1.445.54-.175-.06-.379-.143-.562-.19,2.5,1.149-.034.43-1.2-.011-.163-.054-.34-.133-.5-.2.153.062.353.131.493.2,4.232,1.692,4.631,1.926-.12.126-.584-.193-1.15-.476-1.7-.707-.058-.024-.114-.053-.169-.08a.16.16,0,0,0,.031.035c.039.018.087.038.124.057.55.254,1.114.493,1.681.729,1.1.477,6.617,2.905,1.36,1.183Z" transform="translate(-52.556 -399.144)"/><path class="c" d="M277.786,418.611c0-.031.014-.141.018-.1.1-1.546.061-1.034-.018.1Zm-2.161,2.657c-.072.3-.1,1.4-.33,2.774-.447,2.625.607,9.875,3.411,12.856,1.323,1.407-1.161-1.529-1.788-3.621.139.82,3.387,5.52,3.889,5.322-5.267-2.5-6.532-12.634-5.182-17.331Zm15.609,15.624c-.2-.621-.356-1.435-.575-2a29.407,29.407,0,0,1-.847-6.985c.6,2.019,1.267,4.512,1.738,6.8a22.286,22.286,0,0,0,1.814,4.919,4.429,4.429,0,0,0,.884,1.12,6.365,6.365,0,0,1-.873-1.125c-.858-1.059-1.309-3.629-1.773-4.926-.308-1.306-.243-1.144.087-.018a21.451,21.451,0,0,0,1.907,4.844,4.249,4.249,0,0,0,.921,1.111,1.033,1.033,0,0,0,.157.094.889.889,0,0,1-.158-.093,4.281,4.281,0,0,1-.9-1.12c-.825-1.071-1.257-3.625-1.663-4.888-1.257-5.963-1.157-6.453.246-.05a17.957,17.957,0,0,0,.463,1.815c-.138-.616-.227-1.227-.355-1.837-.762-4.7-.467-3.931.482-.1a24.936,24.936,0,0,0,1.622,4.7,4.752,4.752,0,0,0,.648.914c.043.057-.1-.029-.114-.011-.318-.053-.583.018,0,0l.127.014a4.619,4.619,0,0,1-.644-.921,20.472,20.472,0,0,1-1.558-4.709,26.63,26.63,0,0,1-.809-4.773,62.4,62.4,0,0,0-1.426-9.082c-.828-3.437-4.064-2.6-4.445.211-.46,3.4-.092,12.9-4.832,12.934-4.163.032-2.983-13.061-3.417-15.756-.036,1.973-.226,2.3-.077,0,0-.039,0-.077.006-.114q-.034.489-.075.976a2.27,2.27,0,0,0,.011-.324c-.4,1.8-.4-.388-.362-.855-.461,4.274-.243.873-.105-.9a.159.159,0,0,0-.02.026c-.05.575-1.005,5.516-.86,2.2a5.528,5.528,0,0,1-.7,2.613c-.374-1.489.008-3.115.115-4.624-.554,5.27-.391,2.263-.219-.3-.121,1.647-1.344,7.172-.493,2.308-1.435,4.306-.273-1.866-.17-2.712-.85,2.611-4.38,15.166.784,20.379.109.154.222.305.344.454-3.08-4.526-2.361-13.9-1.693-16.243l.047.016a21.54,21.54,0,0,0,2.6,17.215c.078.067.158.137.241.207.228.177.448.334.669.475-.327-.453-.645-.92-.948-1.41a21.729,21.729,0,0,1-2.187-16.353c.266.2-1.478,10.73,3.155,17.776a7.352,7.352,0,0,0,1.732.792,7.789,7.789,0,0,0,2.958.312,7.419,7.419,0,0,0,.877-.129c7.1-1.672,6.254-11.245,5.678-11.4l-.093-.025-.478,6.953a22.592,22.592,0,0,0,2.2,4.751c-3.247-6.447-2.621-5.613,0,0,.046.085.091.166.139.249a16.314,16.314,0,0,1-1.089-2.457,9.011,9.011,0,0,0,.356.88c-1.671-4.822.889.743,1.372,1.676a1.337,1.337,0,0,0,.076.125c-.017-.028-.058-.1-.075-.125a20.9,20.9,0,0,1-1.941-5.312c-.18-.773-.151-.728.06-.012a23.46,23.46,0,0,0,2.061,5.243,5.533,5.533,0,0,0,1.409,1.636,2.976,2.976,0,0,0,.52.3.609.609,0,0,0-.07-.051c-.158-.076-.312-.2-.437-.261-.576-.273-1.042-1.233-1.387-1.638-.809-.949-1.429-4.046-1.707-5.307-.272-1.756-.162-1.918.421-.087.173.645.426,1.353.643,1.99Zm-15.359-20.056-.006.137.006-.137Zm1.443-.073s.011-.038.02-.027c0-.023,0-.045-.006-.069-.011-.143-.013.077-.013.1Z" transform="translate(-62.471 -398.893)"/><path class="c" d="M330.978,404.88s0-.17.011-.118c-.051-1.724-.038-1.143-.011.118Zm-2.961,6.67c.047,5.819.3,16.17.137,14.917a61.885,61.885,0,0,1-.137-14.917l.038-2.3-.038,2.3Zm-.266-1.632c-.1,7.936-1.224,16.021.437,23.952-1.573-4.733-.847-18.606-.437-23.952Zm11.768,27.907c.059-.3.131-.6.183-.9a59.444,59.444,0,0,1,1.548-6.293,20.254,20.254,0,0,1-.537,6.252c-.261,1.3-.554,2.616-.692,3.911a4.666,4.666,0,0,0-.012.975,9.73,9.73,0,0,1,.024-.976,27.964,27.964,0,0,1,.711-3.911c.481-2.159.46-1.824.143-.006-.226,1.3-.473,2.593-.572,3.879a5.92,5.92,0,0,0,.025,1.126.77.77,0,0,0,.028.122c-.013-.04-.021-.081-.03-.121a4.547,4.547,0,0,1-.009-1.129,23.3,23.3,0,0,1,.781-3.887c1.358-5.452,1.895-6.821.282-.011,0,.086-.155.64-.187.774.075-.244.151-.54.241-.775,1.59-5.042,1.558-4.34.623-.028-.279,1.252-.585,2.551-.761,3.8a6.811,6.811,0,0,0-.052.971c0,.028.017.089-.026.044a1.091,1.091,0,0,0-.308-.288,1.683,1.683,0,0,1,.314.285c.074.067.007-.033.031-.044a7.5,7.5,0,0,1,.06-.971c.3-1.25.492-2.516.811-3.8.865-3.556,2.567-10.366-.359-12.82a5.666,5.666,0,0,0-4.608-1.318,11.213,11.213,0,0,0-3.027,1.235c-.732.336-1.472-15.233-3.142-19.772.169,2.226.067,2.618,0,0,0-.041,0-.083-.006-.124.006.366.011.733.014,1.1a3.176,3.176,0,0,0-.022-.364c-.256,1.98-.518-.121-.521-.831-.139,7.85-.222,2.579-.217-.939a.112.112,0,0,0-.021.035c.014,2.52-.555,10.625-.794,2.667-.01,1.179-.416,5.552-.526,6.758-.3-1.62-.359-6.886-.388-8.8-.113,6.045-.241,2.722-.29-.256.028,2.347-.793,8.536-.344,2.694-.621,4.512-.556,9.156-.9,14.494a54.3,54.3,0,0,0,.779,13.1,3.077,3.077,0,0,0,.692.917,2.9,2.9,0,0,0,1.294.71c4.658.929,5.649-6.761,7.757-6.8,2.143-.04.235,6.879.092,8.506a27.228,27.228,0,0,0-.185,3.355c.1-1.148.348-2.237.5-3.368.172-.886.2-.95.04,0-.2,1.128-.4,2.239-.538,3.367-.009.077-.016.156-.023.233.079-.733.2-1.473.34-2.209-.041.241-.1.54-.119.777,1.069-4.436.421.88.312,1.739.143-1.333.461-2.609.716-3.936.4-1.788.391-1.585.115,0-.244,1.37-.5,2.714-.62,4.077a7.643,7.643,0,0,0,.042,1.514,1.34,1.34,0,0,0,.052.224.309.309,0,0,0,.007-.067c-.014-.05-.022-.118-.037-.164a5.764,5.764,0,0,1-.027-1.512,20.123,20.123,0,0,1,.894-4.086c.713-2.327,1.027-2.665.608-.024.009.111-.13.738-.159.9ZM327.4,403.145c-.345,5.938-1.788,26,.362,30.534l-.105-.435c-1.591-9.963-.207-20.142-.257-30.1Zm1.115.352.006.15-.006-.15ZM330.23,403s.009-.043.021-.033c0-.025-.009-.048-.014-.073-.028-.148-.007.087-.006.106Z" transform="translate(-77.771 -395)"/><path class="c" d="M356.49,442.49s0,.219-.011.151c.067,2.3.049,1.551.011-.151Zm2.549,2.212c0-.072,0-.144-.007-.216,0,.072.006.144.007.216Zm-1.766.448c0,.007-.011.063-.023.046.006.035.011.072.016.107.029.221.008-.124.007-.153Zm.8-3.532c.469-.381.7-7.515.873-9.009.25,1.742-.2,9.688.084,11.876.077-7.568.244-3.471.3.412-.026-2.492.767-10.7.34-3.612,1.147-10.887.536,1.451.518,4.106a88.472,88.472,0,0,1,1.137-12.772c2.068-14.312-5.009-18.028-6.51-12.654-1.91,6.834.811,17.052,1.653,23.481-.181-2.828-.087-3.374,0,0,0,.055,0,.112.006.168-.009-.481-.016-.962-.023-1.445a4.636,4.636,0,0,0,.026.471c.279-2.78.538.425.545,1.174.063-6.364.206-1.218.226,1.351a.145.145,0,0,0,.022-.048c0-.492.124-7.978.217-8.754.045-.366.177,4.114.587,5.253Z" transform="translate(-85.675 -399.284)"/><path class="c" d="M312.637,421.674s.038.042.038.042.065.075.03.048a5.342,5.342,0,0,1,.572.848c.025.035.008.036,0,0-.05-.269-.464-.681-.6-.9a.452.452,0,0,0-.041-.04Zm1.567,1.483s0,.043-.018.032c.007.025.015.049.022.075.042.153,0-.087,0-.107Zm-.851-2.88c-4.932-4.33-7.2.452-5.9,3.926a22.567,22.567,0,0,0,4.1,6.389c-11.486-12.307,1.318-16.057,4.367-8.069a6.07,6.07,0,0,0-.858-2.158,6.47,6.47,0,0,1,1.247,2.584c.07-2.449-1.931-4.183-4.748-5.027-5.262-1.33.806-.445,2.795,1.229a7.692,7.692,0,0,0-2.672-1.674c-.9-.319-1.059-.422.064-.227a7.3,7.3,0,0,1,3.928,2.28c.395.227.939,1.5,1.164,1.861a5.563,5.563,0,0,1,.383,2.214,5.294,5.294,0,0,0-.365-2.22,6.507,6.507,0,0,0-1.154-1.874,7.85,7.85,0,0,0-3.915-2.408,7.157,7.157,0,0,0-2.721-.176,6.184,6.184,0,0,0-2.841,1.105,5.932,5.932,0,0,0-1.926,2.276,9.009,9.009,0,0,0-.325,6.866c1,3.242,8.492,8.122,3.2,10.834-1.25.641-1.233,2.668.9,3.166,3.1.72,5.846-.077,7.522-2.457a5.729,5.729,0,0,0,.961-2.607,6.024,6.024,0,0,0-.305-2.792,12.127,12.127,0,0,0-.731-1.718c-1.7-2.891-9.192-9.662-4.876-10.392a3.275,3.275,0,0,1,1.877.621,5.324,5.324,0,0,1,.5.4c-.126-.173-.3-.323-.411-.471-.988-.889-1.531-1.449.026-.017a3.51,3.51,0,0,1,.386.488c.022.03.042.063.063.094-.132-.224-.325-.408-.439-.589a2.239,2.239,0,0,0-.226-.223c.025.019.23.212.236.217s.034.031.043.037a.4.4,0,0,1-.031-.045c-.376-.63-.628-1.193.4-.293a3.364,3.364,0,0,1,.612.861,3.637,3.637,0,0,0-.58-.885c-1.523-1.513-1.836-1.967.136-.1.247.133.579.854.723,1.074a2.933,2.933,0,0,1,.217.792.083.083,0,0,0,.019-.032c-.04-.273-.172-.553-.206-.771-.057-.359-.523-.843-.654-1.135-.6-.7-3.159-3.077.012-.954Z" transform="translate(-71.179 -399.066)"/><path class="d" d="M212.708,427.227c7.41,30.14-33.043,40.152-40.927,12.247a25.117,25.117,0,0,1-.942-6.479c-.022.845,3.2,12.141,6.761,14.857,1.6,1.223-1.142-1.551-2.3-3.783a1,1,0,0,0,.113,0c7.478,11.17,20.631,14.83,31.237,3.786,4.277-4.453,1.582-1.8,2.24-2.773-.051.125-.04.1.013-.018,5.42-8.039,3.534-20.667-1.8-26.461s-9.411-6.391-14.751-6.1c7.86-.774,16.237,3.388,20.356,14.727Zm-26.182-14.432c8.364-3.346,18.613-1.45,24.751,8.958,13.726,23.278-16.651,48.653-35.169,27.086a24.2,24.2,0,0,1-6.053-15.938c.481.263,2.259,26.214,25.177,23.154,24.825-3.316,24.3-41.084.717-43.822a19.4,19.4,0,0,0-9.242,1.044,1.321,1.321,0,0,0-.18-.482Zm-11.876,5.49c5.767-8.382,16.216-13.1,27.035-8.093,4.473,2.07-2.37-.759,1.73,1.625,27.023,15.714,5.552,56.473-20.359,43.552-8.764-4.371-13.283-12.9-13.435-22.533l.049.008c.334,28.684,38.633,33.651,44.9,6.214,4.1-17.934-10.5-32.442-27.184-28.351-3.886.954,3.189-2.019-2.129-.19a20.885,20.885,0,0,0-10.526,7.768h-.085Z" transform="translate(-33 -396.534)"/><path class="e" d="M202.611,423.932c-3.065-1.392,1.807,1.231,3.784,4.8,8.38,15.127-10.555,29.576-21.292,17.229-11.1-12.767,3.778-32.457,18.434-23.512,14.359,8.764,6.323,32.63-10.608,29.816-17.582-2.922-17.448-30.725.983-33.506a15.39,15.39,0,0,1,8.684,1.219c-20.162-7.231-30.416,20.144-14.953,29.659,14.752,9.079,29.247-11.249,18.4-23.184a11.329,11.329,0,0,0-3.426-2.521Z" transform="translate(-35.984 -399.565)"/><path class="c" d="M254.452,464.953a1.208,1.208,0,0,0-.741-.194,1.251,1.251,0,0,0-1.053.588,2.714,2.714,0,0,0-.421,1.6v3.1h-.983v-6.086h.983v1.253h.024a2.147,2.147,0,0,1,.64-1,1.474,1.474,0,0,1,.964-.358,1.6,1.6,0,0,1,.586.084v1.009Zm9.21,2.3h-4.328a2.273,2.273,0,0,0,.552,1.57,1.91,1.91,0,0,0,1.448.552,3.026,3.026,0,0,0,1.9-.677v.915a3.579,3.579,0,0,1-2.137.581,2.6,2.6,0,0,1-2.041-.828,3.367,3.367,0,0,1-.743-2.332,3.324,3.324,0,0,1,.81-2.315,2.616,2.616,0,0,1,2.015-.894A2.314,2.314,0,0,1,263,464.6a3.2,3.2,0,0,1,.658,2.144v.512Zm-1.005-.825a1.984,1.984,0,0,0-.409-1.315,1.4,1.4,0,0,0-1.123-.469,1.593,1.593,0,0,0-1.179.492,2.234,2.234,0,0,0-.6,1.291Zm5.34,3.405v-1.047a2.923,2.923,0,0,0,1.765.588q1.294,0,1.294-.856a.74.74,0,0,0-.11-.412,1.089,1.089,0,0,0-.3-.3,2.234,2.234,0,0,0-.443-.236c-.17-.07-.351-.143-.547-.218a6.719,6.719,0,0,1-.715-.324,2.16,2.16,0,0,1-.515-.367,1.373,1.373,0,0,1-.31-.466,1.654,1.654,0,0,1-.1-.613,1.457,1.457,0,0,1,.2-.758,1.771,1.771,0,0,1,.528-.552,2.462,2.462,0,0,1,.751-.337,3.356,3.356,0,0,1,.871-.111,3.581,3.581,0,0,1,1.424.271v.988a2.778,2.778,0,0,0-1.556-.439,1.791,1.791,0,0,0-.5.062,1.185,1.185,0,0,0-.38.175.866.866,0,0,0-.246.269.727.727,0,0,0-.085.349.848.848,0,0,0,.085.4.9.9,0,0,0,.256.285,1.905,1.905,0,0,0,.406.226q.24.1.546.218a7.772,7.772,0,0,1,.729.319,2.54,2.54,0,0,1,.552.369,1.439,1.439,0,0,1,.349.473,1.673,1.673,0,0,1-.077,1.42,1.713,1.713,0,0,1-.536.552,2.465,2.465,0,0,1-.772.329,3.907,3.907,0,0,1-.918.105,3.492,3.492,0,0,1-1.638-.361Zm11.634.161a1.922,1.922,0,0,1-.915.189q-1.611,0-1.61-1.784v-3.6h-1.055v-.832h1.055v-1.485l.981-.316v1.8h1.544v.832h-1.544v3.431a1.4,1.4,0,0,0,.209.872.839.839,0,0,0,.7.262,1.023,1.023,0,0,0,.639-.2V470Zm8.918.058h-.983V469.1h-.022a2.057,2.057,0,0,1-1.886,1.093,2.027,2.027,0,0,1-1.435-.479,1.666,1.666,0,0,1-.517-1.279c0-1.136.675-1.8,2.023-1.984l1.837-.256q0-1.552-1.262-1.551a3.026,3.026,0,0,0-2,.749v-1a3.808,3.808,0,0,1,2.082-.569q2.16,0,2.161,2.27v3.958Zm-.983-3.08-1.478.2a2.363,2.363,0,0,0-1.03.336.968.968,0,0,0-.347.853.928.928,0,0,0,.321.728,1.237,1.237,0,0,0,.852.281,1.586,1.586,0,0,0,1.2-.506,1.807,1.807,0,0,0,.476-1.288v-.608Zm11.008,3.08h-.981v-.963h-.024a2.014,2.014,0,0,1-1.892,1.1q-2.192,0-2.19-2.59v-3.637h.975v3.483q0,1.927,1.485,1.925a1.51,1.51,0,0,0,1.183-.525,2.009,2.009,0,0,0,.464-1.377v-3.505h.981v6.086Zm8.4-5.1a1.21,1.21,0,0,0-.741-.194,1.251,1.251,0,0,0-1.052.588,2.713,2.713,0,0,0-.421,1.6v3.1h-.983v-6.086h.983v1.253h.025a2.125,2.125,0,0,1,.64-1,1.471,1.471,0,0,1,.964-.358,1.6,1.6,0,0,1,.586.084v1.009Zm8.673,5.1h-.983V469.1h-.023a2.056,2.056,0,0,1-1.886,1.093,2.029,2.029,0,0,1-1.435-.479,1.667,1.667,0,0,1-.516-1.279c0-1.136.674-1.8,2.022-1.984l1.837-.256q0-1.552-1.262-1.551a3.029,3.029,0,0,0-2,.749v-1a3.811,3.811,0,0,1,2.082-.569q2.161,0,2.162,2.27v3.958Zm-.983-3.08-1.478.2a2.367,2.367,0,0,0-1.03.336.968.968,0,0,0-.347.853.926.926,0,0,0,.321.728,1.235,1.235,0,0,0,.851.281,1.588,1.588,0,0,0,1.206-.506,1.8,1.8,0,0,0,.476-1.288v-.608Zm11.141,3.08h-.983v-3.471q0-1.938-1.424-1.937a1.548,1.548,0,0,0-1.218.549,2.026,2.026,0,0,0-.482,1.388v3.471h-.983v-6.086h.983v1.011h.025a2.209,2.209,0,0,1,2.011-1.152,1.883,1.883,0,0,1,1.539.645,2.85,2.85,0,0,1,.533,1.862v3.72Zm7.912-.058a1.925,1.925,0,0,1-.915.189c-1.075,0-1.61-.6-1.61-1.784v-3.6h-1.055v-.832h1.055v-1.485l.98-.316v1.8h1.545v.832h-1.545v3.431a1.4,1.4,0,0,0,.211.872.837.837,0,0,0,.7.262,1.025,1.025,0,0,0,.639-.2V470Z" transform="translate(-55.999 -412.202)"/></g></svg>