<svg id="Component_4_2" data-name="Component 4 – 2" xmlns="http://www.w3.org/2000/svg" width="14" height="22.882" viewBox="0 0 14 22.882">
  <path id="Path_263" data-name="Path 263" d="M655.668,122.985s0-.78,0-1.04c-.006-2.73-.048-10.919-.048-10.919s-.5-1.005-1.24.283-1.9,8.254-.569,10.362a3.783,3.783,0,0,1,.268.545,5.763,5.763,0,0,1,.134.8s-1.122,10.517.636,10.517C656.4,133.534,655.668,122.985,655.668,122.985Z" transform="translate(-641.842 -110.652)" fill="#e75e25"/>
  <path id="Path_264" data-name="Path 264" d="M490.811,116.761c.325-1.446-.253-6.109-.253-6.109h-.325v4.663H489.8v-4.663h-.452v4.663h-.47v-4.663h-.452v4.663h-.434v-4.663h-.325s-.578,4.663-.253,6.109a2.923,2.923,0,0,0,1.3,1.952s-1.7,14.821.4,14.821.4-14.821.4-14.821A2.923,2.923,0,0,0,490.811,116.761Z" transform="translate(-480.825 -110.652)" fill="#e75e25"/>
  <path id="Path_265" data-name="Path 265" d="M272,116.506c0-2.112-.672-3.22-1.35-3.8a2.144,2.144,0,0,0-2.787,0c-.679.58-1.35,1.687-1.35,3.8,0,3.284,2.123,2.911,2.335,4.064,0,.017.006.035.009.052-.191,1.753-1.5,14.36.412,14.36,1.944,0,.559-13.031.4-14.439C269.914,119.423,272,119.765,272,116.506Z" transform="translate(-266.515 -112.146)" fill="#e75e25"/>
</svg>
