<svg xmlns="http://www.w3.org/2000/svg" width="162" height="35" viewBox="0 0 162 35"><defs><style>.a{fill:none;}.b,.c{stroke:none;}.c{fill:#fff;}</style></defs><g class="a"><path class="b" d="M10,0H152a10,10,0,0,1,10,10V25a10,10,0,0,1-10,10H10A10,10,0,0,1,0,25V10A10,10,0,0,1,10,0Z"/><path class="c" d="M 10 1 C 5.037368774414062 1 1 5.037374496459961 1 10 L 1 25 C 1 29.96262550354004 5.037368774414062 34 10 34 L 53.18541717529297 34 L 152 34 C 156.9626312255859 34 161 29.96262550354004 161 25 L 161 10 C 161 5.037374496459961 156.9626312255859 1 152 1 L 10 1 M 10 0 L 152 0 C 157.5228271484375 0 162 4.477146148681641 162 10 L 162 25 C 162 30.52285385131836 157.5228271484375 35 152 35 L 53.18541717529297 35 L 10 35 C 4.477142333984375 35 0 30.52285385131836 0 25 L 0 10 C 0 4.477146148681641 4.477142333984375 0 10 0 Z"/></g></svg>