<svg xmlns="http://www.w3.org/2000/svg" width="94" height="94" viewBox="0 0 94 94">
  <g id="Group_606" data-name="Group 606" transform="translate(-15.355 -25.005)">
    <circle id="Ellipse_452" data-name="Ellipse 452" cx="47" cy="47" r="47" transform="translate(15.355 25.005)" fill="#dd4619"/>
    <g id="Group_604" data-name="Group 604" transform="translate(74.88 70.492)">
      <path id="Path_279" data-name="Path 279" d="M505.444,426.323H499.97a1.314,1.314,0,0,1-1.3-1.481l.827-6.428a1.314,1.314,0,0,1,1.3-1.146h3.654a1.314,1.314,0,0,1,1.3,1.113l.993,6.428A1.314,1.314,0,0,1,505.444,426.323Z" transform="translate(-498.656 -414.409)" fill="none" stroke="#fff" stroke-miterlimit="10" stroke-width="4.026"/>
      <rect id="Rectangle_1473" data-name="Rectangle 1473" width="3.373" height="2.769" rx="1.384" transform="translate(2.343)" fill="none" stroke="#fff" stroke-miterlimit="10" stroke-width="4.026"/>
    </g>
    <g id="Group_605" data-name="Group 605" transform="translate(75.294 48.067)">
      <circle id="Ellipse_453" data-name="Ellipse 453" cx="4.662" cy="4.662" r="4.662" transform="translate(10.54)" fill="#fff"/>
      <rect id="Rectangle_1474" data-name="Rectangle 1474" width="7.226" height="14.335" rx="3.159" transform="translate(11.939 11.294)" fill="#fff"/>
      <rect id="Rectangle_1475" data-name="Rectangle 1475" width="11.265" height="3.828" rx="1.914" transform="matrix(0.121, -0.993, 0.993, 0.121, 20.319, 28.058)" fill="#fff"/>
      <rect id="Rectangle_1476" data-name="Rectangle 1476" width="3.828" height="10.405" rx="1.914" transform="translate(15.92 13.294) rotate(-41.872)" fill="#fff"/>
      <rect id="Rectangle_1477" data-name="Rectangle 1477" width="3.963" height="12.773" rx="1.981" transform="translate(15.202 20.419)" fill="#fff"/>
      <rect id="Rectangle_1478" data-name="Rectangle 1478" width="3.963" height="14.023" rx="1.981" transform="translate(14.786 30.382) rotate(-15.97)" fill="#fff"/>
      <rect id="Rectangle_1479" data-name="Rectangle 1479" width="3.963" height="12.773" rx="1.981" transform="translate(12.807 21.067) rotate(22.155)" fill="#fff"/>
      <rect id="Rectangle_1480" data-name="Rectangle 1480" width="3.963" height="14.023" rx="1.981" transform="translate(8.091 31.217) rotate(-15.411)" fill="#fff"/>
      <rect id="Rectangle_1481" data-name="Rectangle 1481" width="3.963" height="12.773" rx="1.981" transform="translate(15.202 20.419)" fill="#fff"/>
      <rect id="Rectangle_1482" data-name="Rectangle 1482" width="3.963" height="14.023" rx="1.981" transform="translate(14.903 30.91) rotate(-15.97)" fill="#fff"/>
      <rect id="Rectangle_1483" data-name="Rectangle 1483" width="3.763" height="11.265" rx="1.881" transform="translate(11.265 19.676) rotate(90)" fill="#fff"/>
      <rect id="Rectangle_1484" data-name="Rectangle 1484" width="12.436" height="3.828" rx="1.914" transform="translate(7.147 22.398) rotate(-67.845)" fill="#fff"/>
    </g>
    <path id="Path_280" data-name="Path 280" d="M132.747,254.271l-3.51-12.639c-1.648-3.582-4.821-3.582-7.136-3.582H100.414c-2.328,0-5.119-.366-6.635,3.616l-3.558,12.574a5.473,5.473,0,0,0-3.56,5.128v11.666a1.714,1.714,0,0,0,1.5,1.7v5.56A2.138,2.138,0,0,0,90.3,280.43h3.632a2.138,2.138,0,0,0,2.138-2.138v-5.547h30.844v5.547a2.138,2.138,0,0,0,2.138,2.138h3.632a2.138,2.138,0,0,0,2.138-2.138v-5.576a1.714,1.714,0,0,0,1.4-1.684V259.366A5.472,5.472,0,0,0,132.747,254.271Zm-36.11-.853,1.559-8.35a3.112,3.112,0,0,1,3.059-2.541h20.477a3.012,3.012,0,0,1,2.974,2.53l1.358,8.37a.4.4,0,0,1-.4.468H97.033A.4.4,0,0,1,96.636,253.418ZM96.071,267.6a3.954,3.954,0,1,1,3.954-3.954A3.954,3.954,0,0,1,96.071,267.6Zm21.372-2.7a2,2,0,0,1-1.421.589h-9.161a2.01,2.01,0,0,1,0-4.02h9.161a2.01,2.01,0,0,1,1.421,3.432Zm9.472,2.7a3.954,3.954,0,1,1,3.954-3.954A3.954,3.954,0,0,1,126.915,267.6Z" transform="translate(-62.115 -187.55)" fill="#fff"/>
  </g>
</svg>
