<svg xmlns="http://www.w3.org/2000/svg" width="103.454" height="94" viewBox="0 0 103.454 94">
  <g id="Group_624" data-name="Group 624" transform="translate(-130.617 -514.383)">
    <g id="Group_1" data-name="Group 1" transform="translate(145.617 542.341)">
      <path id="Path_1" data-name="Path 1" d="M572.861,477.812c-4.329,0-8.967,3.509-10.36,7.838s.988,7.838,5.317,7.838,8.967-3.509,10.36-7.838S577.19,477.812,572.861,477.812Zm-3.553,11.043a2.255,2.255,0,0,1-2.174-3.205,4.8,4.8,0,0,1,4.237-3.206,2.255,2.255,0,0,1,2.174,3.206A4.8,4.8,0,0,1,569.308,488.855Z" transform="translate(-492.63 -440.787)" fill="#fff"/>
      <path id="Path_2" data-name="Path 2" d="M279.576,477.812c-4.329,0-8.967,3.509-10.36,7.838s.988,7.838,5.317,7.838,8.967-3.509,10.359-7.838S283.905,477.812,279.576,477.812Zm-3.553,11.043a2.255,2.255,0,0,1-2.174-3.205,4.8,4.8,0,0,1,4.237-3.206,2.255,2.255,0,0,1,2.174,3.206A4.8,4.8,0,0,1,276.023,488.855Z" transform="translate(-242.698 -440.787)" fill="#fff"/>
      <path id="Path_3" data-name="Path 3" d="M575.4,449.865s11.365-7.069,14.361,2.918c.069.23.126.708-.4.708H572.336Z" transform="translate(-501.35 -414.902)" fill="#fff"/>
      <path id="Path_4" data-name="Path 4" d="M614.58,347.86c-1.4-.383-2.813.17-2.326,1.677.344,1.064.954,2.664,1.37,3.733.195.5.64.517,1.032.064C615.75,352.072,617.421,348.636,614.58,347.86Z" transform="translate(-535.284 -329.944)" fill="#fff"/>
      <path id="Path_5" data-name="Path 5" d="M403.266,302.983a37.468,37.468,0,0,0-5.564,6.573c-2.121,3.408,2.933,2.436,4.278,2.017,3.575-1.113,8.827-3.095,11.589-4a6.324,6.324,0,0,0,2.137-1.112c.828-.718,1.178-1.677.237-2.331a2.442,2.442,0,0,0-2.539-.487c-.882.365-1.3,1.808-1.3,1.808l-7.582,2.052s2.378-2.389,3.93-3.826a2.985,2.985,0,0,0-1.148-5.008c-2.365-.7-10.433,1.878-16.763,5.843s-7.673,6.524-7.93,9.624c3.965-1.53,12.411-3.177,12.411-3.177A26.678,26.678,0,0,1,403.266,302.983Z" transform="translate(-339.666 -288.029)" fill="#fff"/>
      <path id="Path_6" data-name="Path 6" d="M523.2,236.985h14.915a.937.937,0,0,0,.866-.649c.63-2.164,1.345-9-6.646-9-7.19,0-9.614,7.067-9.539,9.146C522.8,236.7,522.977,236.985,523.2,236.985Z" transform="translate(-459.131 -227.335)" fill="#fff"/>
      <path id="Path_7" data-name="Path 7" d="M544.97,277.888s-.536,7.2-8.923,5.981c-2.145-1.261-4.837-2.47-4-5.89S544.97,277.888,544.97,277.888Z" transform="translate(-466.884 -269.177)" fill="#fff"/>
      <path id="Path_8" data-name="Path 8" d="M382.747,380.5s-1.458,2.717,5.03,3.583a95.255,95.255,0,0,0,13.9.79s-7.522,6.362-9.467,8.5-1.428,3.114.087,3.114h9.862s1.252-.7,0-1.461-3.826-2.156-3.826-2.156,8.174-6.383,9.5-7.269,2.775-3.152-.581-4.591c-4.336-1.859-13.581-3.938-13.581-3.938S383.183,376.387,382.747,380.5Z" transform="translate(-339.666 -354.901)" fill="#fff"/>
      <path id="Path_9" data-name="Path 9" d="M301.636,353.028c-1.507-4.408-3.091-7.825-3.091-7.825l-2.5,1.252s-.182,5.226-.417,7.512a22.652,22.652,0,0,1-8,15.4H273.725a1.364,1.364,0,0,1-1.239-1.12c-.15-1.444.583-2.835,2.686-5.5,3.55-4.5,6.126-7.558,6.126-7.558H252.76c-.535,0-.69.26-.563.675a5.221,5.221,0,0,0,1.61,2.661,27.445,27.445,0,0,0-7.585,13.238c-.245.911.511.885.511.885h46.854a1.438,1.438,0,0,0,1.36-.651c1.2-1.334,2.959-3.691,5.9-7.187C304.7,360.214,302.888,356.692,301.636,353.028Z" transform="translate(-223.399 -327.78)" fill="#fff"/>
      <path id="Path_10" data-name="Path 10" d="M265.644,268.251H250.052a2,2,0,0,0-2,2v16.067a2,2,0,0,0,2,2h15.592a2,2,0,0,0,2-2V270.247A2,2,0,0,0,265.644,268.251Zm-13.88,17.018a.642.642,0,1,1-1.283,0V271.293a.642.642,0,1,1,1.283,0Z" transform="translate(-225.005 -262.203)" fill="#fff"/>
      <path id="Path_11" data-name="Path 11" d="M316.081,449.465a26.842,26.842,0,0,1,3.218-1.544c3.368-1.288,4.845-1.3,5.246-.662.443.7-2.468,1.192-3.835,1.53a41.447,41.447,0,0,0-4.35,1.244C315.058,450.492,313.952,450.639,316.081,449.465Z" transform="translate(-281.954 -414.399)" fill="#fff"/>
      <path id="Rectangle_1" data-name="Rectangle 1" d="M.832,0H14.527a.832.832,0,0,1,.832.832v0a.832.832,0,0,1-.832.832H.832A.832.832,0,0,1,0,.832v0A.832.832,0,0,1,.832,0Z" transform="translate(4.467 34.932)" fill="#fff"/>
      <path id="Rectangle_2" data-name="Rectangle 2" d="M.832,0H14.527a.832.832,0,0,1,.832.832v0a.832.832,0,0,1-.832.832H.832A.832.832,0,0,1,0,.832v0A.832.832,0,0,1,.832,0Z" transform="translate(9.402 28.541)" fill="#fff"/>
      <path id="Rectangle_3" data-name="Rectangle 3" d="M.832,0h13.7a.832.832,0,0,1,.832.832v0a.832.832,0,0,1-.832.832H.832A.832.832,0,0,1,0,.832v0A.832.832,0,0,1,.832,0Z" transform="translate(0 41.875)" fill="#fff"/>
    </g>
    <g id="Group_585" data-name="Group 585" transform="translate(145.617 542.341)">
      <path id="Path_1-2" data-name="Path 1" d="M572.861,477.812c-4.329,0-8.967,3.509-10.36,7.838s.988,7.838,5.317,7.838,8.967-3.509,10.36-7.838S577.19,477.812,572.861,477.812Zm-3.553,11.043a2.255,2.255,0,0,1-2.174-3.205,4.8,4.8,0,0,1,4.237-3.206,2.255,2.255,0,0,1,2.174,3.206A4.8,4.8,0,0,1,569.308,488.855Z" transform="translate(-492.63 -440.787)" fill="#fff"/>
      <path id="Path_2-2" data-name="Path 2" d="M279.576,477.812c-4.329,0-8.967,3.509-10.36,7.838s.988,7.838,5.317,7.838,8.967-3.509,10.359-7.838S283.905,477.812,279.576,477.812Zm-3.553,11.043a2.255,2.255,0,0,1-2.174-3.205,4.8,4.8,0,0,1,4.237-3.206,2.255,2.255,0,0,1,2.174,3.206A4.8,4.8,0,0,1,276.023,488.855Z" transform="translate(-242.698 -440.787)" fill="#fff"/>
      <path id="Path_3-2" data-name="Path 3" d="M575.4,449.865s11.365-7.069,14.361,2.918c.069.23.126.708-.4.708H572.336Z" transform="translate(-501.35 -414.902)" fill="#fff"/>
      <path id="Path_4-2" data-name="Path 4" d="M614.58,347.86c-1.4-.383-2.813.17-2.326,1.677.344,1.064.954,2.664,1.37,3.733.195.5.64.517,1.032.064C615.75,352.072,617.421,348.636,614.58,347.86Z" transform="translate(-535.284 -329.944)" fill="#fff"/>
      <path id="Path_5-2" data-name="Path 5" d="M403.266,302.983a37.468,37.468,0,0,0-5.564,6.573c-2.121,3.408,2.933,2.436,4.278,2.017,3.575-1.113,8.827-3.095,11.589-4a6.324,6.324,0,0,0,2.137-1.112c.828-.718,1.178-1.677.237-2.331a2.442,2.442,0,0,0-2.539-.487c-.882.365-1.3,1.808-1.3,1.808l-7.582,2.052s2.378-2.389,3.93-3.826a2.985,2.985,0,0,0-1.148-5.008c-2.365-.7-10.433,1.878-16.763,5.843s-7.673,6.524-7.93,9.624c3.965-1.53,12.411-3.177,12.411-3.177A26.678,26.678,0,0,1,403.266,302.983Z" transform="translate(-339.666 -288.029)" fill="#fff"/>
      <path id="Path_6-2" data-name="Path 6" d="M523.2,236.985h14.915a.937.937,0,0,0,.866-.649c.63-2.164,1.345-9-6.646-9-7.19,0-9.614,7.067-9.539,9.146C522.8,236.7,522.977,236.985,523.2,236.985Z" transform="translate(-459.131 -227.335)" fill="#fff"/>
      <path id="Path_7-2" data-name="Path 7" d="M544.97,277.888s-.536,7.2-8.923,5.981c-2.145-1.261-4.837-2.47-4-5.89S544.97,277.888,544.97,277.888Z" transform="translate(-466.884 -269.177)" fill="#fff"/>
      <path id="Path_8-2" data-name="Path 8" d="M382.747,380.5s-1.458,2.717,5.03,3.583a95.255,95.255,0,0,0,13.9.79s-7.522,6.362-9.467,8.5-1.428,3.114.087,3.114h9.862s1.252-.7,0-1.461-3.826-2.156-3.826-2.156,8.174-6.383,9.5-7.269,2.775-3.152-.581-4.591c-4.336-1.859-13.581-3.938-13.581-3.938S383.183,376.387,382.747,380.5Z" transform="translate(-339.666 -354.901)" fill="#fff"/>
      <path id="Path_9-2" data-name="Path 9" d="M301.636,353.028c-1.507-4.408-3.091-7.825-3.091-7.825l-2.5,1.252s-.182,5.226-.417,7.512a22.652,22.652,0,0,1-8,15.4H273.725a1.364,1.364,0,0,1-1.239-1.12c-.15-1.444.583-2.835,2.686-5.5,3.55-4.5,6.126-7.558,6.126-7.558H252.76c-.535,0-.69.26-.563.675a5.221,5.221,0,0,0,1.61,2.661,27.445,27.445,0,0,0-7.585,13.238c-.245.911.511.885.511.885h46.854a1.438,1.438,0,0,0,1.36-.651c1.2-1.334,2.959-3.691,5.9-7.187C304.7,360.214,302.888,356.692,301.636,353.028Z" transform="translate(-223.399 -327.78)" fill="#fff"/>
      <path id="Path_10-2" data-name="Path 10" d="M265.644,268.251H250.052a2,2,0,0,0-2,2v16.067a2,2,0,0,0,2,2h15.592a2,2,0,0,0,2-2V270.247A2,2,0,0,0,265.644,268.251Zm-13.88,17.018a.642.642,0,1,1-1.283,0V271.293a.642.642,0,1,1,1.283,0Z" transform="translate(-225.005 -262.203)" fill="#fff"/>
      <path id="Path_11-2" data-name="Path 11" d="M316.081,449.465a26.842,26.842,0,0,1,3.218-1.544c3.368-1.288,4.845-1.3,5.246-.662.443.7-2.468,1.192-3.835,1.53a41.447,41.447,0,0,0-4.35,1.244C315.058,450.492,313.952,450.639,316.081,449.465Z" transform="translate(-281.954 -414.399)" fill="#fff"/>
      <path id="Rectangle_1-2" data-name="Rectangle 1" d="M.832,0H14.527a.832.832,0,0,1,.832.832v0a.832.832,0,0,1-.832.832H.832A.832.832,0,0,1,0,.832v0A.832.832,0,0,1,.832,0Z" transform="translate(4.467 34.932)" fill="#fff"/>
      <path id="Rectangle_2-2" data-name="Rectangle 2" d="M.832,0H14.527a.832.832,0,0,1,.832.832v0a.832.832,0,0,1-.832.832H.832A.832.832,0,0,1,0,.832v0A.832.832,0,0,1,.832,0Z" transform="translate(9.402 28.541)" fill="#fff"/>
      <path id="Rectangle_3-2" data-name="Rectangle 3" d="M.832,0h13.7a.832.832,0,0,1,.832.832v0a.832.832,0,0,1-.832.832H.832A.832.832,0,0,1,0,.832v0A.832.832,0,0,1,.832,0Z" transform="translate(0 41.875)" fill="#fff"/>
    </g>
    <g id="Group_588" data-name="Group 588" transform="translate(145.617 542.341)">
      <path id="Path_1-3" data-name="Path 1" d="M572.861,477.812c-4.329,0-8.967,3.509-10.36,7.838s.988,7.838,5.317,7.838,8.967-3.509,10.36-7.838S577.19,477.812,572.861,477.812Zm-3.553,11.043a2.255,2.255,0,0,1-2.174-3.205,4.8,4.8,0,0,1,4.237-3.206,2.255,2.255,0,0,1,2.174,3.206A4.8,4.8,0,0,1,569.308,488.855Z" transform="translate(-492.63 -440.787)" fill="#fff"/>
      <path id="Path_2-3" data-name="Path 2" d="M279.576,477.812c-4.329,0-8.967,3.509-10.36,7.838s.988,7.838,5.317,7.838,8.967-3.509,10.359-7.838S283.905,477.812,279.576,477.812Zm-3.553,11.043a2.255,2.255,0,0,1-2.174-3.205,4.8,4.8,0,0,1,4.237-3.206,2.255,2.255,0,0,1,2.174,3.206A4.8,4.8,0,0,1,276.023,488.855Z" transform="translate(-242.698 -440.787)" fill="#fff"/>
      <path id="Path_3-3" data-name="Path 3" d="M575.4,449.865s11.365-7.069,14.361,2.918c.069.23.126.708-.4.708H572.336Z" transform="translate(-501.35 -414.902)" fill="#fff"/>
      <path id="Path_4-3" data-name="Path 4" d="M614.58,347.86c-1.4-.383-2.813.17-2.326,1.677.344,1.064.954,2.664,1.37,3.733.195.5.64.517,1.032.064C615.75,352.072,617.421,348.636,614.58,347.86Z" transform="translate(-535.284 -329.944)" fill="#fff"/>
      <path id="Path_5-3" data-name="Path 5" d="M403.266,302.983a37.468,37.468,0,0,0-5.564,6.573c-2.121,3.408,2.933,2.436,4.278,2.017,3.575-1.113,8.827-3.095,11.589-4a6.324,6.324,0,0,0,2.137-1.112c.828-.718,1.178-1.677.237-2.331a2.442,2.442,0,0,0-2.539-.487c-.882.365-1.3,1.808-1.3,1.808l-7.582,2.052s2.378-2.389,3.93-3.826a2.985,2.985,0,0,0-1.148-5.008c-2.365-.7-10.433,1.878-16.763,5.843s-7.673,6.524-7.93,9.624c3.965-1.53,12.411-3.177,12.411-3.177A26.678,26.678,0,0,1,403.266,302.983Z" transform="translate(-339.666 -288.029)" fill="#fff"/>
      <path id="Path_6-3" data-name="Path 6" d="M523.2,236.985h14.915a.937.937,0,0,0,.866-.649c.63-2.164,1.345-9-6.646-9-7.19,0-9.614,7.067-9.539,9.146C522.8,236.7,522.977,236.985,523.2,236.985Z" transform="translate(-459.131 -227.335)" fill="#fff"/>
      <path id="Path_7-3" data-name="Path 7" d="M544.97,277.888s-.536,7.2-8.923,5.981c-2.145-1.261-4.837-2.47-4-5.89S544.97,277.888,544.97,277.888Z" transform="translate(-466.884 -269.177)" fill="#fff"/>
      <path id="Path_8-3" data-name="Path 8" d="M382.747,380.5s-1.458,2.717,5.03,3.583a95.255,95.255,0,0,0,13.9.79s-7.522,6.362-9.467,8.5-1.428,3.114.087,3.114h9.862s1.252-.7,0-1.461-3.826-2.156-3.826-2.156,8.174-6.383,9.5-7.269,2.775-3.152-.581-4.591c-4.336-1.859-13.581-3.938-13.581-3.938S383.183,376.387,382.747,380.5Z" transform="translate(-339.666 -354.901)" fill="#fff"/>
      <path id="Path_9-3" data-name="Path 9" d="M301.636,353.028c-1.507-4.408-3.091-7.825-3.091-7.825l-2.5,1.252s-.182,5.226-.417,7.512a22.652,22.652,0,0,1-8,15.4H273.725a1.364,1.364,0,0,1-1.239-1.12c-.15-1.444.583-2.835,2.686-5.5,3.55-4.5,6.126-7.558,6.126-7.558H252.76c-.535,0-.69.26-.563.675a5.221,5.221,0,0,0,1.61,2.661,27.445,27.445,0,0,0-7.585,13.238c-.245.911.511.885.511.885h46.854a1.438,1.438,0,0,0,1.36-.651c1.2-1.334,2.959-3.691,5.9-7.187C304.7,360.214,302.888,356.692,301.636,353.028Z" transform="translate(-223.399 -327.78)" fill="#fff"/>
      <path id="Path_10-3" data-name="Path 10" d="M265.644,268.251H250.052a2,2,0,0,0-2,2v16.067a2,2,0,0,0,2,2h15.592a2,2,0,0,0,2-2V270.247A2,2,0,0,0,265.644,268.251Zm-13.88,17.018a.642.642,0,1,1-1.283,0V271.293a.642.642,0,1,1,1.283,0Z" transform="translate(-225.005 -262.203)" fill="#fff"/>
      <path id="Path_11-3" data-name="Path 11" d="M316.081,449.465a26.842,26.842,0,0,1,3.218-1.544c3.368-1.288,4.845-1.3,5.246-.662.443.7-2.468,1.192-3.835,1.53a41.447,41.447,0,0,0-4.35,1.244C315.058,450.492,313.952,450.639,316.081,449.465Z" transform="translate(-281.954 -414.399)" fill="#fff"/>
      <path id="Rectangle_1-3" data-name="Rectangle 1" d="M.832,0H14.527a.832.832,0,0,1,.832.832v0a.832.832,0,0,1-.832.832H.832A.832.832,0,0,1,0,.832v0A.832.832,0,0,1,.832,0Z" transform="translate(4.467 34.932)" fill="#fff"/>
      <path id="Rectangle_2-3" data-name="Rectangle 2" d="M.832,0H14.527a.832.832,0,0,1,.832.832v0a.832.832,0,0,1-.832.832H.832A.832.832,0,0,1,0,.832v0A.832.832,0,0,1,.832,0Z" transform="translate(9.402 28.541)" fill="#fff"/>
      <path id="Rectangle_3-3" data-name="Rectangle 3" d="M.832,0h13.7a.832.832,0,0,1,.832.832v0a.832.832,0,0,1-.832.832H.832A.832.832,0,0,1,0,.832v0A.832.832,0,0,1,.832,0Z" transform="translate(0 41.875)" fill="#fff"/>
    </g>
    <path id="Path_1681" data-name="Path 1681" d="M47,0A47,47,0,1,1,0,47,47,47,0,0,1,47,0Z" transform="translate(137 514.383)" fill="#df4618"/>
    <g id="Group_591" data-name="Group 591" transform="translate(130.617 535.341)">
      <path id="Path_1-4" data-name="Path 1" d="M572.861,477.812c-4.329,0-8.967,3.509-10.36,7.838s.988,7.838,5.317,7.838,8.967-3.509,10.36-7.838S577.19,477.812,572.861,477.812Zm-3.553,11.043a2.255,2.255,0,0,1-2.174-3.205,4.8,4.8,0,0,1,4.237-3.206,2.255,2.255,0,0,1,2.174,3.206A4.8,4.8,0,0,1,569.308,488.855Z" transform="translate(-492.63 -440.787)" fill="#fff"/>
      <path id="Path_2-4" data-name="Path 2" d="M279.576,477.812c-4.329,0-8.967,3.509-10.36,7.838s.988,7.838,5.317,7.838,8.967-3.509,10.359-7.838S283.905,477.812,279.576,477.812Zm-3.553,11.043a2.255,2.255,0,0,1-2.174-3.205,4.8,4.8,0,0,1,4.237-3.206,2.255,2.255,0,0,1,2.174,3.206A4.8,4.8,0,0,1,276.023,488.855Z" transform="translate(-242.698 -440.787)" fill="#fff"/>
      <path id="Path_3-4" data-name="Path 3" d="M575.4,449.865s11.365-7.069,14.361,2.918c.069.23.126.708-.4.708H572.336Z" transform="translate(-501.35 -414.902)" fill="#fff"/>
      <path id="Path_4-4" data-name="Path 4" d="M614.58,347.86c-1.4-.383-2.813.17-2.326,1.677.344,1.064.954,2.664,1.37,3.733.195.5.64.517,1.032.064C615.75,352.072,617.421,348.636,614.58,347.86Z" transform="translate(-535.284 -329.944)" fill="#fff"/>
      <path id="Path_5-4" data-name="Path 5" d="M403.266,302.983a37.468,37.468,0,0,0-5.564,6.573c-2.121,3.408,2.933,2.436,4.278,2.017,3.575-1.113,8.827-3.095,11.589-4a6.324,6.324,0,0,0,2.137-1.112c.828-.718,1.178-1.677.237-2.331a2.442,2.442,0,0,0-2.539-.487c-.882.365-1.3,1.808-1.3,1.808l-7.582,2.052s2.378-2.389,3.93-3.826a2.985,2.985,0,0,0-1.148-5.008c-2.365-.7-10.433,1.878-16.763,5.843s-7.673,6.524-7.93,9.624c3.965-1.53,12.411-3.177,12.411-3.177A26.678,26.678,0,0,1,403.266,302.983Z" transform="translate(-339.666 -288.029)" fill="#fff"/>
      <path id="Path_6-4" data-name="Path 6" d="M523.2,236.985h14.915a.937.937,0,0,0,.866-.649c.63-2.164,1.345-9-6.646-9-7.19,0-9.614,7.067-9.539,9.146C522.8,236.7,522.977,236.985,523.2,236.985Z" transform="translate(-459.131 -227.335)" fill="#fff"/>
      <path id="Path_7-4" data-name="Path 7" d="M544.97,277.888s-.536,7.2-8.923,5.981c-2.145-1.261-4.837-2.47-4-5.89S544.97,277.888,544.97,277.888Z" transform="translate(-466.884 -269.177)" fill="#fff"/>
      <path id="Path_8-4" data-name="Path 8" d="M382.747,380.5s-1.458,2.717,5.03,3.583a95.255,95.255,0,0,0,13.9.79s-7.522,6.362-9.467,8.5-1.428,3.114.087,3.114h9.862s1.252-.7,0-1.461-3.826-2.156-3.826-2.156,8.174-6.383,9.5-7.269,2.775-3.152-.581-4.591c-4.336-1.859-13.581-3.938-13.581-3.938S383.183,376.387,382.747,380.5Z" transform="translate(-339.666 -354.901)" fill="#fff"/>
      <path id="Path_9-4" data-name="Path 9" d="M301.636,353.028c-1.507-4.408-3.091-7.825-3.091-7.825l-2.5,1.252s-.182,5.226-.417,7.512a22.652,22.652,0,0,1-8,15.4H273.725a1.364,1.364,0,0,1-1.239-1.12c-.15-1.444.583-2.835,2.686-5.5,3.55-4.5,6.126-7.558,6.126-7.558H252.76c-.535,0-.69.26-.563.675a5.221,5.221,0,0,0,1.61,2.661,27.445,27.445,0,0,0-7.585,13.238c-.245.911.511.885.511.885h46.854a1.438,1.438,0,0,0,1.36-.651c1.2-1.334,2.959-3.691,5.9-7.187C304.7,360.214,302.888,356.692,301.636,353.028Z" transform="translate(-223.399 -327.78)" fill="#fff"/>
      <path id="Path_10-4" data-name="Path 10" d="M265.644,268.251H250.052a2,2,0,0,0-2,2v16.067a2,2,0,0,0,2,2h15.592a2,2,0,0,0,2-2V270.247A2,2,0,0,0,265.644,268.251Zm-13.88,17.018a.642.642,0,1,1-1.283,0V271.293a.642.642,0,1,1,1.283,0Z" transform="translate(-225.005 -262.203)" fill="#fff"/>
      <path id="Path_11-4" data-name="Path 11" d="M316.081,449.465a26.842,26.842,0,0,1,3.218-1.544c3.368-1.288,4.845-1.3,5.246-.662.443.7-2.468,1.192-3.835,1.53a41.447,41.447,0,0,0-4.35,1.244C315.058,450.492,313.952,450.639,316.081,449.465Z" transform="translate(-281.954 -414.399)" fill="#fff"/>
      <path id="Rectangle_1-4" data-name="Rectangle 1" d="M.832,0H14.527a.832.832,0,0,1,.832.832v0a.832.832,0,0,1-.832.832H.832A.832.832,0,0,1,0,.832v0A.832.832,0,0,1,.832,0Z" transform="translate(4.467 34.932)" fill="#fff"/>
      <path id="Rectangle_2-4" data-name="Rectangle 2" d="M.832,0H14.527a.832.832,0,0,1,.832.832v0a.832.832,0,0,1-.832.832H.832A.832.832,0,0,1,0,.832v0A.832.832,0,0,1,.832,0Z" transform="translate(9.402 28.541)" fill="#fff"/>
      <path id="Rectangle_3-4" data-name="Rectangle 3" d="M.832,0h13.7a.832.832,0,0,1,.832.832v0a.832.832,0,0,1-.832.832H.832A.832.832,0,0,1,0,.832v0A.832.832,0,0,1,.832,0Z" transform="translate(0 41.875)" fill="#fff"/>
    </g>
  </g>
</svg>
